<?xml version="1.0" standalone="no"?>
<!DOCTYPE svg PUBLIC "-//W3C//DTD SVG 20010904//EN"
 "http://www.w3.org/TR/2001/REC-SVG-20010904/DTD/svg10.dtd">
<svg version="1.0" xmlns="http://www.w3.org/2000/svg"
 width="1024.000000pt" height="853.000000pt" viewBox="0 0 1024.000000 853.000000"
 preserveAspectRatio="xMidYMid meet">
<metadata>
Created by potrace 1.15, written by Peter Selinger 2001-2017
</metadata>
<g transform="translate(0.000000,853.000000) scale(0.100000,-0.100000)"
fill="#000000" stroke="none">
<path d="M1170 7689 c-14 -6 -81 -26 -150 -44 -150 -39 -273 -83 -357 -127
-58 -30 -62 -35 -66 -73 -3 -31 -1 -231 3 -315 1 -8 6 -111 11 -229 10 -200
12 -216 35 -252 16 -26 32 -39 46 -39 31 0 98 -74 98 -108 0 -26 -22 -69 -43
-83 -5 -4 -31 -10 -58 -13 -53 -7 -63 -16 -65 -61 -5 -93 18 -729 28 -775 7
-30 12 -62 13 -70 0 -9 16 -18 42 -24 42 -10 53 -24 53 -72 0 -23 -80 -104
-103 -104 -7 0 -24 -11 -36 -24 -22 -23 -22 -27 -22 -312 0 -298 12 -431 46
-496 8 -16 22 -41 30 -57 11 -20 26 -31 50 -35 28 -6 35 -12 35 -30 0 -24 -24
-51 -63 -70 -39 -20 -49 -57 -38 -143 6 -43 13 -215 16 -383 8 -389 15 -456
47 -484 32 -27 58 -70 58 -94 0 -23 -50 -72 -73 -72 -29 0 -40 -47 -33 -150 3
-52 10 -120 15 -150 5 -30 12 -85 15 -121 l5 -66 -60 -7 c-71 -7 -79 -11 -79
-37 0 -27 22 -33 83 -21 55 11 67 5 67 -31 0 -25 -38 -37 -165 -52 -60 -8
-111 -14 -113 -14 -2 -1 -2 -11 0 -23 3 -22 6 -23 88 -20 46 1 111 9 142 18
l58 15 41 -33 c38 -31 39 -33 20 -42 -23 -10 -26 -23 -12 -45 8 -12 22 -13 89
-3 81 11 319 5 327 -8 3 -4 -15 -11 -39 -14 -44 -7 -60 -23 -50 -51 8 -20 15
-19 156 10 66 14 136 25 154 25 26 0 39 7 56 30 26 35 64 40 99 11 l24 -19
-40 -11 c-22 -6 -67 -16 -100 -24 -54 -12 -60 -16 -63 -42 l-4 -28 54 7 c29 4
81 16 116 26 l62 19 45 -31 c45 -32 45 -48 0 -48 -25 0 -65 -27 -65 -43 0 -7
4 -18 9 -26 8 -13 15 -12 48 2 62 26 189 50 210 39 10 -5 49 -12 86 -16 37 -4
82 -9 99 -13 l32 -6 -47 -14 c-47 -14 -55 -25 -38 -52 8 -12 23 -12 105 4 53
10 99 22 102 26 8 14 42 11 144 -13 l94 -21 -44 -11 c-38 -9 -45 -15 -48 -38
-3 -22 1 -28 17 -28 29 0 124 21 136 30 19 15 90 18 158 7 63 -10 92 -27 46
-27 -34 0 -59 -19 -59 -45 0 -14 6 -25 13 -25 23 0 202 41 220 51 12 7 54 3
135 -12 64 -11 119 -22 120 -24 2 -2 -18 -7 -45 -11 -70 -10 -93 -21 -93 -43
0 -11 4 -22 9 -26 14 -8 145 13 220 36 61 18 67 18 113 3 26 -8 50 -19 53 -23
2 -5 -13 -15 -35 -24 -32 -12 -38 -19 -33 -36 6 -25 23 -26 113 -6 42 9 91 12
137 8 l73 -6 15 37 c20 48 57 63 103 42 25 -12 33 -22 30 -38 -3 -19 -14 -24
-73 -35 -109 -19 -130 -34 -106 -72 8 -12 24 -11 108 8 l99 22 34 -31 c18 -17
46 -38 62 -46 35 -18 35 -23 -1 -35 -34 -12 -47 -37 -29 -55 10 -10 25 -10 73
4 70 19 187 19 315 -1 l85 -14 -43 -12 c-39 -11 -43 -15 -40 -39 2 -17 9 -26
18 -25 34 4 138 26 183 40 37 11 61 11 105 4 31 -6 78 -13 105 -16 26 -4 47
-10 47 -16 0 -5 -5 -9 -12 -9 -7 0 -32 -7 -55 -16 -41 -16 -57 -44 -34 -58 10
-7 104 14 188 40 45 15 61 15 115 4 104 -20 138 -30 138 -40 0 -5 -21 -15 -46
-22 -50 -14 -71 -35 -61 -62 5 -13 11 -14 24 -7 10 5 56 17 103 26 47 9 95 22
107 27 14 7 37 7 70 0 26 -6 67 -14 91 -17 23 -4 42 -11 42 -15 0 -5 -25 -14
-56 -21 -31 -7 -66 -21 -78 -30 -20 -17 -20 -19 -4 -35 16 -16 21 -15 100 10
46 14 92 26 104 26 11 0 25 5 32 12 9 9 24 8 65 -5 28 -9 74 -23 100 -32 26
-8 55 -15 63 -15 8 0 12 -4 9 -10 -3 -5 -19 -10 -35 -10 -46 0 -80 -17 -80
-40 0 -29 17 -33 86 -20 32 6 83 15 111 20 29 4 78 22 109 39 l56 30 35 -26
c50 -38 60 -61 31 -72 -99 -38 -108 -44 -108 -69 0 -22 3 -24 33 -19 17 4 53
13 78 21 45 14 48 13 82 -9 19 -13 76 -37 126 -52 87 -26 114 -43 71 -43 -24
0 -47 -37 -32 -52 10 -10 89 -3 201 18 35 7 191 -23 191 -37 0 -4 -7 -9 -15
-13 -17 -6 -20 -41 -5 -51 5 -3 39 1 75 10 37 8 85 15 107 15 44 0 158 -28
158 -39 0 -4 -13 -12 -30 -18 -32 -12 -39 -33 -17 -52 10 -8 27 -6 67 9 29 10
71 20 94 21 45 2 206 -30 206 -41 0 -4 -13 -10 -30 -13 -43 -9 -80 -36 -80
-59 0 -17 5 -19 33 -15 49 9 160 38 182 48 15 7 44 4 100 -11 117 -31 114 -29
84 -45 -15 -8 -29 -21 -32 -29 -11 -27 15 -34 83 -23 85 14 202 13 240 -3 36
-15 36 -14 9 -41 -42 -42 -11 -52 101 -33 30 6 76 8 102 6 42 -4 47 -7 50 -30
2 -22 8 -27 28 -26 37 1 123 26 140 40 32 27 445 65 840 79 134 5 194 11 218
22 40 19 46 27 27 43 -17 14 -427 -1 -680 -26 -82 -7 -161 -14 -175 -13 -23 0
-23 1 -5 8 11 5 58 24 105 44 115 47 144 51 545 82 188 15 402 24 433 19 32
-5 44 -2 61 15 24 24 26 37 9 47 -17 10 -220 5 -408 -11 -91 -7 -221 -17 -290
-21 l-125 -7 57 47 c63 51 36 45 363 76 61 5 191 19 290 30 99 11 196 21 215
22 19 2 43 11 53 22 17 16 17 20 4 33 -13 13 -48 12 -308 -16 -162 -17 -341
-32 -399 -34 l-105 -2 -3 48 c-2 26 1 47 5 47 4 0 37 5 73 10 36 5 88 12 115
15 28 3 70 10 95 15 25 5 72 12 105 15 33 3 129 17 213 31 84 13 170 24 191
24 50 0 83 32 59 56 -14 14 -35 13 -224 -15 -182 -26 -598 -81 -618 -81 -4 0
-6 24 -4 52 l3 53 60 7 c33 3 92 11 130 17 39 5 104 15 145 21 80 12 134 34
127 53 -6 18 -52 25 -104 16 -60 -12 -230 -36 -304 -43 l-57 -6 -6 31 c-3 17
-6 49 -6 70 0 43 -6 39 105 59 103 19 105 19 105 41 0 30 -23 33 -135 17
l-103 -14 -49 26 c-28 15 -61 30 -74 35 -21 6 -18 8 23 15 58 10 68 16 68 40
0 29 -29 32 -176 20 -123 -10 -142 -10 -183 6 -67 24 -68 29 -6 43 30 7 55 16
55 20 0 4 -9 16 -20 26 -17 16 -28 16 -115 6 -52 -6 -107 -8 -120 -5 -14 3
-32 1 -39 -6 -12 -9 -29 -8 -78 6 -35 9 -75 23 -90 31 -15 7 -36 13 -48 13
-11 0 -20 5 -20 10 0 6 39 10 98 10 83 0 102 3 115 18 44 48 14 55 -199 50
-130 -3 -167 -7 -174 -18 -8 -13 -16 -12 -62 2 -83 26 -133 38 -156 38 -27 0
-38 18 -21 35 11 11 91 14 387 16 332 3 376 5 393 20 22 19 25 39 7 40 -7 0
-180 0 -383 -1 -204 -1 -382 1 -397 5 -16 4 -29 16 -32 30 -3 13 -13 31 -22
39 -12 13 -13 17 -2 20 29 10 386 25 608 26 58 0 81 5 100 20 48 37 19 42
-212 40 -117 -1 -272 -5 -344 -8 -164 -9 -168 -8 -159 26 4 15 9 29 12 32 2 3
62 7 131 10 132 5 170 16 159 44 -5 14 -27 16 -148 16 l-141 0 6 33 c4 17 6
188 6 379 0 276 -3 358 -15 404 -8 32 -15 81 -15 110 0 55 -15 77 -60 87 -14
3 -56 15 -95 27 -38 11 -102 27 -142 36 -40 8 -87 21 -105 28 -18 7 -87 24
-153 36 -66 12 -140 30 -165 40 -25 9 -70 23 -100 30 -30 7 -65 18 -76 26 -12
7 -52 19 -89 26 -37 6 -73 17 -80 24 -14 14 -12 77 5 174 18 108 22 192 11
296 -7 66 -7 142 0 231 8 113 8 137 -6 162 -8 17 -15 47 -15 68 0 21 -3 47 -6
58 -6 21 -115 91 -155 99 -87 18 -296 71 -359 90 -139 43 -378 90 -523 102
-68 6 -84 11 -116 38 -20 17 -48 38 -62 47 l-24 17 19 36 c10 19 27 38 37 41
9 3 25 18 35 32 20 31 23 211 13 700 -6 317 -4 309 -81 330 -71 18 -190 42
-248 48 -30 4 -68 11 -85 15 -16 5 -82 16 -145 25 -63 9 -137 21 -165 26 -27
5 -93 16 -145 24 -153 24 -229 48 -243 76 -7 13 -30 33 -51 44 l-38 20 5 81
c4 58 13 94 31 129 17 35 22 53 15 62 -12 13 -13 99 -4 313 4 80 6 152 5 160
0 8 -3 51 -6 94 -8 112 -21 121 -184 131 -131 7 -287 25 -354 40 -34 8 -87 16
-118 19 -32 3 -65 9 -75 14 -26 14 -84 22 -218 33 -66 5 -192 16 -280 23 -88
8 -243 22 -345 30 -102 8 -207 19 -235 25 -27 5 -104 12 -170 16 -108 6 -131
4 -225 -19 l-105 -25 -35 38 c-54 59 -100 77 -230 89 -177 18 -570 25 -600 11z
m558 -75 c34 -4 62 -11 62 -15 0 -5 -8 -9 -17 -9 -25 0 -380 -128 -435 -156
-28 -14 -40 -14 -142 1 -126 19 -224 31 -343 41 -46 4 -83 10 -83 13 0 15 132
58 340 111 114 29 117 29 335 25 121 -3 248 -8 283 -11z m220 -56 c7 -7 12
-17 12 -23 0 -12 -99 -44 -284 -91 -60 -15 -123 -37 -140 -49 l-31 -21 0 -174
c0 -279 16 -561 34 -616 19 -57 17 -56 206 -78 145 -18 300 -42 510 -80 77
-14 205 -37 285 -51 80 -14 215 -41 300 -60 169 -36 254 -51 520 -90 96 -14
191 -31 210 -37 21 -8 112 -13 230 -13 107 -1 265 -7 350 -14 85 -7 183 -12
218 -10 38 3 61 0 59 -6 -4 -12 -42 -21 -182 -39 -122 -16 -135 -24 -157 -99
-6 -23 -14 -45 -18 -50 -3 -4 -31 -2 -62 3 -31 6 -71 12 -90 14 -18 2 -58 11
-88 20 -30 9 -92 23 -137 31 -45 8 -119 23 -165 34 -46 10 -105 22 -133 26
-69 9 -212 38 -395 79 -182 42 -283 47 -300 17 -13 -25 -12 -122 1 -181 6 -25
14 -189 19 -365 5 -198 12 -332 20 -352 19 -52 121 -86 405 -134 72 -12 180
-34 240 -50 204 -52 339 -77 535 -99 107 -12 227 -28 265 -36 74 -16 100 -20
310 -52 72 -11 143 -25 158 -31 66 -25 166 -42 185 -32 15 8 23 7 31 -3 8 -10
79 -15 298 -20 165 -4 289 -11 291 -16 2 -6 23 -19 48 -29 27 -12 44 -26 44
-37 0 -14 -8 -15 -67 -9 -38 4 -79 13 -93 20 -14 7 -55 16 -93 20 -97 10 -118
-1 -153 -82 -29 -65 -29 -65 -64 -59 -81 12 -214 47 -350 91 -328 106 -407
123 -720 154 -58 6 -124 11 -147 11 -43 0 -94 -15 -103 -30 -15 -25 11 -827
29 -897 5 -18 5 -35 0 -40 -10 -10 77 -43 115 -43 30 -1 229 -51 371 -95 137
-42 387 -116 725 -214 320 -93 477 -129 635 -146 72 -8 169 -20 217 -26 48 -6
97 -7 109 -4 29 9 187 8 376 -3 81 -5 159 -9 173 -9 14 0 59 -4 100 -9 102
-13 220 -7 227 12 10 26 -17 46 -56 39 -37 -5 -450 20 -551 34 -57 8 -57 7 12
33 19 7 89 7 221 -1 287 -16 314 -15 320 10 5 19 7 19 34 6 15 -8 52 -22 81
-32 29 -9 62 -26 73 -38 24 -26 25 -69 0 -91 -28 -25 -129 -38 -203 -26 -80
12 -157 -8 -203 -55 -30 -29 -41 -33 -128 -43 -52 -6 -104 -16 -114 -23 -16
-9 -30 -9 -69 4 -27 9 -67 19 -89 22 -22 4 -110 19 -195 35 -85 16 -209 35
-275 44 -66 9 -158 23 -205 31 -47 9 -94 18 -105 20 -11 2 -58 12 -105 24
-225 54 -341 74 -353 62 -9 -9 -11 -60 -9 -179 4 -255 21 -694 28 -724 6 -28
6 -28 -39 -22 -26 4 -60 1 -81 -6 -21 -7 -39 -10 -42 -8 -2 3 0 50 6 106 17
176 -25 780 -59 852 -25 54 -63 72 -391 186 -245 85 -377 120 -655 174 -55 11
-131 26 -170 34 -38 8 -124 20 -190 26 -147 14 -443 55 -508 72 -40 10 -50 10
-57 -2 -19 -31 -21 -143 -5 -315 9 -99 21 -252 26 -340 5 -88 12 -188 15 -223
l7 -63 -39 8 c-22 4 -56 7 -76 6 -33 -1 -38 2 -38 22 0 45 -30 412 -41 495
-24 190 -30 224 -59 314 -30 92 -73 166 -108 185 -10 5 -101 23 -203 40 -102
17 -198 35 -214 40 -17 5 -100 22 -185 36 -85 14 -222 39 -305 55 -201 39
-396 67 -574 81 l-147 12 4 29 c2 15 6 28 9 28 3 0 84 -13 181 -29 141 -24
214 -31 361 -33 l185 -3 18 60 c27 86 19 270 -20 470 -17 83 -35 190 -41 238
-17 125 -20 132 -86 156 -82 31 -312 72 -450 81 -115 8 -185 18 -185 27 0 2
10 17 21 33 16 20 20 36 15 55 -6 25 -5 27 16 22 180 -40 176 -39 308 -52 36
-3 97 -10 135 -15 39 -5 140 -14 225 -20 85 -6 229 -17 320 -25 91 -8 242 -19
335 -25 94 -6 208 -15 253 -22 70 -9 85 -9 93 3 31 49 51 220 45 394 -13 387
-20 492 -32 522 -22 56 -62 68 -374 108 -107 14 -215 30 -240 35 -88 19 -246
30 -474 36 -127 3 -301 9 -386 14 -85 6 -171 10 -191 10 l-36 0 20 41 c19 39
19 43 4 91 l-16 50 26 -6 c13 -4 83 -11 155 -16 72 -5 171 -12 222 -16 50 -4
101 -11 114 -15 17 -7 27 -4 43 12 17 17 19 27 13 62 -8 48 -8 252 1 347 8 91
-10 373 -27 399 -17 27 -8 34 77 61 39 12 86 31 105 41 32 17 163 58 235 73
17 4 44 15 60 26 34 22 75 26 93 8z m472 -28 c58 -4 112 -11 120 -14 22 -8
293 -36 302 -30 8 5 196 -11 304 -27 38 -5 101 -12 140 -14 141 -9 211 -16
279 -30 242 -49 368 -69 519 -80 39 -3 74 -9 78 -13 5 -5 -28 -16 -74 -26 -99
-19 -344 -101 -415 -137 -17 -9 -29 -8 -58 6 -28 13 -71 18 -183 21 -338 9
-474 23 -752 79 -232 47 -343 64 -515 80 -345 32 -405 39 -405 47 0 4 12 10
28 13 56 12 101 25 244 69 81 25 158 46 170 46 13 1 34 7 48 15 14 8 34 12 45
9 11 -4 67 -10 125 -14z m-1582 -116 c170 -18 381 -49 434 -64 20 -6 39 -18
43 -28 15 -38 26 -329 16 -452 -5 -69 -7 -155 -4 -191 3 -37 2 -68 -3 -71 -14
-7 -394 20 -439 31 -22 5 -71 15 -110 22 -38 7 -74 16 -78 19 -14 12 -42 705
-30 738 6 15 -5 15 171 -4z m1092 -110 c74 -9 200 -22 280 -29 142 -14 218
-28 445 -79 125 -28 150 -32 255 -46 41 -5 109 -14 150 -19 41 -6 166 -11 277
-11 111 0 207 -2 215 -5 10 -4 12 -38 11 -158 -2 -83 2 -177 7 -207 15 -91 42
-402 38 -450 -2 -34 -7 -44 -18 -41 -14 3 -209 33 -435 67 -55 8 -140 23 -190
34 -107 23 -525 103 -680 130 -60 10 -148 25 -195 34 -47 8 -137 22 -200 30
-63 9 -155 22 -205 28 l-90 13 -7 60 c-11 94 -21 570 -13 625 l7 50 106 -6
c59 -3 168 -12 242 -20z m2343 -81 c3 -39 1 -65 -8 -78 -7 -11 -125 -135 -262
-275 -136 -141 -266 -281 -287 -313 -43 -62 -56 -70 -56 -33 0 13 -3 38 -6 55
-5 24 -3 31 8 31 9 0 27 17 41 38 27 40 65 85 227 267 192 217 230 263 230
284 0 11 -5 23 -11 27 -14 8 10 23 48 30 15 3 34 9 42 14 26 15 28 12 34 -47z
m-192 -35 c-17 -24 -61 -77 -98 -119 -38 -41 -126 -141 -198 -222 l-129 -147
-13 43 c-15 50 -16 77 -4 77 14 0 224 235 249 279 22 39 22 40 3 51 -16 8 -24
5 -44 -18 -14 -15 -64 -71 -112 -124 -48 -54 -91 -98 -95 -98 -4 0 -7 37 -6
82 l1 81 85 34 c47 19 119 48 160 65 67 28 164 54 213 57 15 1 14 -6 -12 -41z
m199 -198 c0 -63 -2 -70 -19 -70 -11 0 -27 -10 -35 -22 -17 -24 -340 -362
-458 -479 -43 -42 -78 -83 -78 -91 0 -7 10 -19 22 -27 21 -13 28 -7 132 105
61 65 182 191 268 279 l158 160 0 -77 c0 -42 -5 -89 -12 -103 -6 -14 -45 -50
-87 -82 -174 -130 -220 -182 -175 -200 19 -7 13 -11 125 80 124 101 123 100
115 36 -3 -30 -6 -57 -6 -61 0 -5 -8 -8 -19 -8 -10 0 -45 -12 -77 -26 -32 -14
-115 -41 -184 -60 -69 -18 -155 -48 -192 -66 -37 -17 -70 -30 -72 -27 -2 2 -6
39 -7 82 -3 70 -1 80 18 95 12 10 43 49 70 89 26 40 120 146 208 236 88 90
190 195 228 235 37 40 69 72 72 72 3 0 5 -31 5 -70z m-3225 -675 c132 -8 321
-15 420 -15 186 -1 247 -6 620 -59 332 -47 351 -50 370 -71 15 -16 16 -24 6
-47 -8 -20 -8 -45 -1 -88 17 -102 24 -479 11 -585 -7 -52 -15 -98 -19 -101 -4
-4 -36 -3 -72 2 -36 5 -204 18 -373 30 -170 11 -316 22 -326 24 -10 2 -105 8
-212 15 -107 6 -200 13 -207 16 -8 2 -64 9 -125 14 -133 12 -128 11 -289 52
l-126 33 -12 38 c-6 20 -13 63 -15 95 -8 109 -15 581 -9 624 l6 44 57 -3 c31
-2 164 -10 296 -18z m3185 -31 c99 -6 106 -8 132 -36 15 -17 28 -32 28 -34 0
-7 -143 -4 -235 5 -49 5 -144 13 -210 17 l-120 7 95 28 c69 20 110 26 150 23
30 -2 102 -6 160 -10z m333 -59 c21 -3 70 -10 110 -15 40 -5 146 -21 237 -35
91 -15 197 -30 235 -35 83 -9 199 -40 188 -51 -4 -4 -62 -28 -128 -54 -66 -26
-139 -58 -162 -71 -45 -26 -240 -106 -287 -118 -18 -4 -59 0 -110 13 -45 11
-148 27 -231 36 -140 16 -272 38 -281 48 -5 5 16 68 27 83 9 11 126 34 176 34
47 0 99 19 138 50 38 30 39 30 126 24 90 -7 119 1 119 31 0 20 -27 27 -119 31
-79 4 -111 14 -111 36 0 5 8 7 18 5 9 -3 34 -8 55 -12z m-1728 -100 c28 -3 75
-13 106 -21 104 -26 293 -64 394 -80 55 -8 138 -24 185 -35 47 -11 117 -26
155 -33 39 -7 124 -25 190 -39 186 -40 527 -97 640 -107 113 -10 190 -26 203
-44 5 -6 14 -93 21 -192 7 -100 19 -224 28 -275 25 -150 27 -239 9 -302 -9
-31 -20 -58 -25 -61 -4 -3 -53 5 -107 18 -54 13 -142 29 -194 35 -52 7 -149
23 -215 36 -66 13 -204 33 -305 44 -187 21 -345 50 -520 94 -88 23 -173 40
-390 82 -47 9 -113 25 -147 36 -58 19 -63 23 -72 57 -5 20 -12 152 -15 293 -3
140 -13 308 -21 373 -9 64 -13 122 -9 127 3 5 13 8 22 5 10 -2 40 -7 67 -11z
m2577 -155 c4 -138 4 -135 -13 -132 -9 1 -33 -18 -55 -45 -21 -27 -67 -82
-103 -123 -35 -41 -73 -86 -85 -100 -12 -14 -48 -59 -81 -100 -32 -41 -64 -79
-71 -85 -35 -31 -154 -187 -149 -195 3 -5 -1 -7 -9 -4 -15 6 -21 24 -31 112
-6 48 -5 52 13 50 13 -2 40 23 93 88 41 50 92 108 113 130 20 21 63 70 94 109
31 38 79 95 107 126 27 31 67 75 88 98 55 60 65 88 41 105 -18 14 -18 15 6 25
39 16 40 15 42 -59z m-92 22 c0 -5 -10 -17 -21 -28 -12 -10 -86 -95 -164 -189
-79 -93 -158 -186 -176 -205 -63 -67 -139 -160 -139 -170 0 -6 -4 -10 -9 -10
-5 0 -12 34 -16 76 l-7 75 48 47 c26 26 65 72 88 102 22 30 73 90 113 132 40
42 73 83 73 91 0 9 36 27 98 50 109 40 112 40 112 29z m100 -292 c0 -67 14
-46 -180 -264 -147 -164 -336 -382 -366 -422 -13 -17 -24 -43 -24 -58 0 -24
-23 -46 -35 -34 -3 3 2 27 10 54 8 27 15 63 15 79 0 33 18 65 71 122 19 21 66
78 104 128 39 49 81 101 94 115 13 14 41 51 62 82 21 31 47 63 57 70 9 7 53
52 96 101 44 48 83 87 88 87 4 0 8 -27 8 -60z m9 -258 l1 -73 -97 -92 c-53
-51 -131 -127 -174 -170 -72 -73 -139 -116 -219 -142 l-24 -8 19 29 c10 16 61
80 114 142 53 63 116 138 141 168 25 29 86 98 135 152 101 112 103 112 104 -6z
m-4499 -202 c280 -24 475 -65 490 -104 4 -12 15 -73 25 -136 9 -63 25 -153 36
-199 31 -134 44 -314 28 -381 l-14 -55 -150 3 c-142 4 -276 19 -514 58 l-104
18 -20 45 c-44 100 -51 161 -50 447 1 182 5 278 12 293 14 25 64 27 261 11z
m4432 -309 c15 -1 40 -13 55 -27 l28 -25 -110 5 c-60 4 -167 6 -237 7 -71 0
-128 4 -128 8 0 4 14 14 30 22 27 12 172 17 362 10z m419 -116 c134 -22 218
-42 394 -93 84 -25 150 -41 231 -57 34 -7 67 -15 74 -20 7 -4 -37 -24 -112
-50 -67 -23 -151 -54 -185 -68 -76 -33 -279 -91 -313 -90 -14 1 -44 6 -67 12
-24 6 -60 15 -80 20 -21 6 -76 21 -123 34 -47 14 -157 42 -245 62 -88 21 -165
41 -172 44 -9 5 -6 20 12 59 28 61 38 63 156 33 114 -29 152 -33 203 -20 36 9
53 20 67 43 17 28 22 30 80 31 37 0 64 5 66 11 13 38 -110 67 -155 38 -23 -15
-26 -15 -51 10 l-26 26 51 0 c28 0 115 -11 195 -25z m-1686 -14 c232 -26 383
-61 565 -132 25 -10 72 -24 105 -33 220 -56 355 -89 530 -131 110 -25 240 -58
288 -71 48 -13 107 -24 130 -24 24 0 62 -10 87 -22 l45 -23 2 -200 c1 -110 7
-254 13 -320 17 -185 24 -362 14 -367 -11 -7 -248 17 -374 37 -114 19 -343 79
-690 182 -140 41 -295 86 -345 100 -49 13 -119 35 -155 48 -105 38 -310 95
-391 108 l-74 13 -8 74 c-17 171 -31 751 -19 774 5 9 123 3 277 -13z m2475
-272 c0 -35 -3 -39 -25 -39 -21 0 -29 -8 -44 -42 -10 -24 -97 -135 -192 -247
-189 -222 -298 -355 -337 -413 -13 -21 -29 -38 -33 -38 -5 0 -9 23 -9 51 0 49
3 55 78 148 44 53 84 108 91 121 7 14 23 34 35 45 13 11 58 67 101 125 44 58
111 141 150 185 39 44 76 92 82 106 8 19 23 30 50 36 21 5 41 8 46 6 4 -2 7
-22 7 -44z m-267 -106 c-43 -54 -101 -127 -128 -163 -28 -36 -94 -119 -149
-184 -92 -111 -100 -118 -108 -96 -14 38 -6 99 15 118 11 9 28 35 39 57 27 52
76 113 165 204 40 41 73 80 73 87 0 6 7 17 14 24 17 13 149 61 154 55 2 -2
-32 -48 -75 -102z m281 -72 c-7 -70 -8 -72 -30 -67 -28 7 -32 3 -106 -105 -29
-42 -90 -124 -136 -183 -84 -106 -169 -222 -226 -306 -17 -25 -53 -73 -81
-108 l-50 -62 -3 60 c-3 55 0 64 38 120 22 34 40 63 40 66 0 6 162 206 181
224 21 19 221 257 234 278 6 9 17 22 26 29 9 7 35 42 59 78 25 38 47 62 52 57
5 -5 5 -41 2 -81z m-535 2 c-41 -43 -87 -93 -101 -112 l-26 -35 -4 82 -3 82
40 16 c46 17 133 42 154 43 8 1 -19 -34 -60 -76z m529 -173 c2 -56 0 -63 -44
-127 -25 -37 -79 -104 -118 -148 -103 -115 -170 -196 -192 -230 -10 -16 -35
-50 -55 -75 -21 -25 -39 -53 -41 -64 -3 -20 -93 -61 -102 -47 -3 5 4 22 17 40
59 82 170 233 240 326 42 58 77 108 77 113 0 4 14 21 31 38 18 16 58 65 90
109 33 44 64 85 69 92 6 7 10 17 10 23 0 5 3 10 8 10 4 0 8 -27 10 -60z
m-5407 20 c81 -11 182 -27 225 -35 44 -8 192 -35 329 -60 138 -24 279 -51 315
-59 36 -8 119 -24 185 -35 176 -31 186 -34 213 -81 70 -123 98 -283 129 -738
10 -157 13 -256 7 -262 -5 -5 -32 -4 -69 5 -33 8 -105 23 -160 34 -55 11 -163
34 -240 51 -202 45 -354 75 -480 94 -571 88 -849 162 -875 231 -6 15 -15 162
-20 328 -9 281 -23 478 -35 497 -10 17 8 40 39 50 43 13 260 3 437 -20z m5414
-297 c-3 -14 -13 -23 -24 -23 -25 0 -156 -158 -193 -230 -25 -50 -34 -59 -83
-79 -31 -13 -58 -21 -61 -18 -8 8 81 142 130 195 23 26 72 79 107 117 36 39
78 88 94 109 l30 40 3 -44 c2 -24 1 -54 -3 -67z m-3595 -48 c47 -8 150 -22
230 -30 266 -28 822 -145 990 -208 36 -14 133 -48 215 -77 173 -60 220 -83
234 -109 6 -10 20 -119 32 -242 26 -272 31 -619 10 -691 -16 -55 -19 -56 -126
-33 -38 8 -158 33 -265 55 -107 22 -224 47 -260 55 -36 8 -139 30 -230 49 -91
20 -208 48 -260 62 -180 49 -395 105 -465 119 -38 8 -101 25 -140 37 -67 22
-69 24 -77 63 -11 48 -27 220 -33 330 -8 173 -16 268 -25 313 -5 26 -11 104
-14 174 l-5 127 27 10 c38 14 66 13 162 -4z m4215 -455 c219 -42 385 -85 385
-100 0 -3 -71 -41 -157 -85 -87 -44 -198 -107 -248 -139 -95 -63 -215 -130
-252 -140 -16 -5 -35 3 -72 29 -41 30 -211 112 -246 119 -28 5 -175 69 -175
76 0 4 27 10 59 12 54 4 64 9 106 47 l47 43 112 -4 c92 -4 121 -1 171 15 82
27 109 54 111 114 1 27 3 49 3 50 1 2 11 -2 24 -7 12 -5 72 -19 132 -30z
m-1965 -80 c213 -47 374 -75 500 -89 52 -6 138 -20 190 -31 52 -11 133 -26
180 -34 168 -29 313 -75 537 -169 97 -40 154 -71 178 -94 l35 -34 0 -99 c0
-95 21 -309 40 -408 11 -61 14 -188 5 -223 -4 -17 -1 -30 9 -38 29 -24 12
-219 -21 -252 -12 -12 -125 9 -423 79 -140 33 -280 63 -310 67 -30 4 -86 15
-125 25 -38 10 -97 24 -130 30 -33 7 -141 39 -240 71 -99 33 -197 64 -218 70
-41 11 -294 116 -367 152 -50 25 -44 5 -74 227 -8 63 -18 203 -21 310 -3 107
-8 262 -12 344 l-6 149 49 -7 c27 -4 128 -25 224 -46z m2409 -152 c1 -15 -6
-31 -14 -35 -8 -5 -52 -64 -98 -133 -46 -69 -111 -163 -146 -210 -210 -286
-385 -521 -396 -530 -9 -8 -14 -3 -19 21 -10 51 -7 79 9 85 8 4 15 10 15 15 0
13 123 192 212 310 40 52 85 115 101 140 45 73 86 126 127 168 22 22 40 42 40
45 0 2 18 32 40 65 22 33 40 69 40 79 0 13 12 24 38 34 35 13 37 13 44 -6 3
-12 6 -33 7 -48z m-6654 -6 c110 -29 301 -64 690 -127 83 -14 188 -33 235 -44
118 -28 262 -59 345 -76 39 -8 126 -26 194 -40 68 -14 132 -25 142 -25 14 0
23 15 34 55 l16 55 41 0 c23 0 55 -9 73 -20 27 -17 33 -28 39 -69 3 -27 12
-54 19 -59 21 -18 160 -58 347 -101 96 -23 220 -54 275 -71 128 -39 403 -104
525 -125 129 -22 165 -29 310 -64 69 -16 154 -35 190 -41 36 -6 97 -18 136
-27 82 -19 111 -14 157 27 66 58 124 65 168 21 21 -21 29 -39 29 -63 0 -40 25
-68 85 -93 393 -165 821 -301 1085 -345 88 -14 131 -24 385 -86 273 -66 328
-75 413 -73 71 2 426 -17 526 -29 l59 -7 -37 -17 c-30 -15 -42 -31 -70 -92
-35 -76 -64 -106 -104 -106 -12 0 -25 -7 -28 -15 -9 -21 -28 -19 -172 20 -71
19 -164 41 -208 50 -43 8 -124 30 -179 49 -55 18 -170 55 -255 81 -85 26 -180
55 -210 65 -63 21 -187 50 -212 50 -30 0 -48 -28 -38 -56 6 -14 10 -55 10 -92
0 -37 4 -96 9 -132 5 -36 12 -101 16 -144 l7 -79 -34 20 c-18 11 -49 26 -69
32 l-36 12 -6 127 c-4 70 -7 165 -7 212 0 86 -19 151 -51 176 -8 6 -52 28 -98
48 -85 37 -168 62 -476 142 -93 24 -240 64 -326 88 -86 24 -219 54 -295 66
-214 34 -453 78 -514 95 -30 9 -102 27 -160 41 -58 14 -130 34 -160 45 -50 17
-57 17 -78 3 -16 -11 -21 -21 -16 -32 4 -9 11 -53 15 -97 5 -44 13 -107 18
-140 6 -33 12 -96 16 -141 l5 -80 -50 0 c-59 0 -53 -18 -69 211 -10 152 -44
300 -74 322 -50 39 -395 123 -912 223 -115 23 -257 52 -315 65 -58 13 -152 32
-210 40 -142 22 -318 60 -414 89 -76 24 -81 24 -108 8 l-29 -17 7 -249 c7
-243 7 -249 -12 -241 -10 4 -35 13 -54 20 l-35 13 -2 139 c-2 191 -11 298 -27
337 -19 45 -98 78 -293 122 -87 19 -185 41 -218 49 -33 8 -77 17 -98 21 -33 6
-38 10 -33 28 3 11 6 36 6 55 0 39 -15 39 165 -7z m6458 -44 c-10 -18 -34 -51
-53 -73 -20 -22 -62 -78 -95 -124 -96 -135 -337 -456 -345 -459 -4 -1 -10 28
-13 65 -6 77 -1 91 67 173 25 30 71 89 101 130 31 41 74 98 95 125 22 28 40
59 40 70 0 22 31 43 122 85 32 15 61 30 65 33 3 4 13 7 20 7 11 0 10 -7 -4
-32z m-6468 -123 c28 -8 104 -26 170 -41 176 -39 238 -60 255 -86 11 -18 15
-74 18 -253 5 -279 8 -270 -93 -255 -39 6 -122 15 -186 20 -133 10 -143 12
-258 48 -53 17 -88 34 -96 47 -7 11 -20 85 -30 165 -9 80 -21 177 -25 215 -10
79 -13 179 -5 187 6 6 179 -27 250 -47z m6657 -42 c-19 -27 -186 -290 -229
-363 -12 -19 -72 -100 -133 -180 -61 -80 -148 -200 -193 -267 -45 -68 -85
-123 -89 -123 -5 0 -8 26 -8 58 0 52 4 63 50 127 27 39 73 104 101 145 29 41
62 89 76 105 69 87 113 146 152 205 24 36 65 90 90 120 26 30 71 93 100 140
29 47 63 96 75 108 l21 24 3 -36 c2 -23 -4 -45 -16 -63z m-508 5 c-17 -30
-189 -238 -196 -238 -10 0 -2 130 9 141 4 4 40 24 78 44 39 20 77 43 85 51 18
17 34 18 24 2z m536 -197 c0 -78 -2 -90 -18 -95 -10 -4 -26 -22 -35 -42 -18
-38 -144 -207 -292 -394 -175 -220 -181 -230 -153 -258 22 -22 38 -12 78 51
42 67 97 140 172 228 27 30 48 59 48 63 0 4 23 35 50 69 28 34 50 67 50 73 0
7 11 19 24 28 14 8 33 29 42 46 25 42 34 38 34 -17 0 -89 -10 -123 -35 -123
-17 0 -42 -25 -96 -96 -114 -148 -131 -176 -125 -204 4 -24 -4 -31 -97 -82
-99 -55 -146 -76 -274 -123 -59 -22 -63 -22 -63 -5 0 31 11 50 29 50 17 0 45
38 107 145 16 27 34 57 39 66 22 37 171 236 205 274 19 22 62 81 94 130 155
237 201 305 208 305 5 0 8 -40 8 -89z m-5913 43 c49 -14 180 -41 293 -60 113
-19 232 -42 264 -50 33 -9 182 -40 330 -69 362 -73 702 -150 804 -183 l83 -27
25 -81 c24 -82 43 -252 44 -401 l0 -72 -27 4 c-16 2 -45 7 -66 10 -27 4 -37
10 -33 20 6 16 0 19 -127 49 -107 26 -172 38 -612 111 -148 25 -317 56 -375
70 -58 14 -179 37 -270 50 -257 38 -289 44 -344 72 -63 31 -56 24 -66 69 -10
45 -25 514 -16 514 3 0 45 -11 93 -26z m2132 -480 c41 -8 78 -17 82 -20 9 -5
128 -35 234 -57 39 -9 102 -22 140 -31 39 -8 111 -20 160 -26 114 -13 282 -46
360 -70 132 -40 423 -120 439 -120 27 0 315 -86 401 -120 111 -44 115 -49 115
-179 0 -58 5 -162 10 -231 6 -81 6 -128 0 -134 -13 -13 -121 8 -245 49 -55 18
-156 45 -225 60 -69 15 -170 38 -225 52 -294 71 -418 97 -570 119 -60 8 -132
19 -160 24 -27 4 -93 14 -145 20 -205 26 -328 69 -366 127 -30 45 -52 152 -69
328 -8 83 -18 167 -21 188 -4 20 -3 37 2 37 5 0 42 -7 83 -16z m3571 -449
c233 -14 254 -17 283 -41 49 -41 49 -41 -523 -5 -90 6 -93 7 -65 20 79 35 102
40 165 35 36 -2 99 -6 140 -9z m525 -69 c56 -13 116 -31 135 -39 l35 -15 -42
-1 c-23 -1 -76 6 -117 15 -90 20 -126 14 -126 -22 0 -29 -6 -27 141 -50 98
-15 121 -15 148 -5 33 14 39 29 19 49 -17 17 2 16 49 -3 21 -8 76 -24 123 -34
151 -35 204 -50 269 -76 36 -14 74 -25 85 -25 30 0 209 -59 224 -75 11 -10 -1
-19 -70 -53 -99 -47 -183 -82 -298 -124 -47 -16 -125 -48 -173 -71 -79 -36
-92 -39 -120 -29 -31 10 -90 22 -282 56 -49 9 -108 21 -130 26 -22 5 -83 18
-135 30 -78 17 -287 75 -350 97 -13 5 -13 6 0 10 29 10 89 86 105 133 20 60
42 69 143 60 85 -8 132 -4 176 14 42 18 70 74 63 128 -4 33 -3 38 11 34 10 -3
62 -16 117 -30z m-1677 -133 c81 -25 192 -59 247 -74 55 -15 116 -34 136 -43
19 -8 172 -49 340 -91 167 -42 369 -96 449 -120 80 -25 187 -51 238 -59 51 -8
96 -17 101 -20 4 -3 61 -15 127 -26 145 -25 296 -60 308 -71 5 -4 10 -61 12
-126 1 -65 6 -170 9 -234 5 -92 3 -123 -9 -152 -8 -21 -21 -37 -28 -37 -28 1
-157 31 -228 54 -132 43 -590 162 -1355 352 -476 119 -504 131 -526 220 -14
60 -40 277 -46 388 l-5 99 41 -7 c23 -3 108 -27 189 -53z m2647 -260 c-10 -16
-25 -37 -34 -48 -10 -11 -75 -107 -147 -212 -71 -106 -153 -228 -182 -270 -30
-43 -64 -99 -77 -124 -21 -40 -31 -48 -92 -72 -80 -31 -83 -32 -83 -12 0 8 9
15 19 15 13 0 30 20 54 63 20 34 52 84 71 112 20 27 36 54 36 59 0 5 9 19 20
31 11 11 56 86 100 165 45 80 90 154 100 165 12 13 17 29 13 46 -4 23 0 27 38
38 24 7 68 26 98 42 71 38 89 39 66 2z m38 -140 c-3 -43 -10 -80 -15 -81 -5
-2 -26 -29 -47 -60 -22 -32 -53 -73 -71 -92 -43 -48 -110 -149 -110 -167 0 -8
5 -23 11 -35 14 -26 11 -28 -48 -32 -57 -4 -73 -11 -73 -32 0 -15 -39 -35 -53
-27 -4 2 11 30 33 62 22 31 40 60 40 64 0 4 24 38 54 77 30 39 58 79 61 90 4
11 10 20 15 20 4 0 10 8 14 18 6 18 15 32 79 123 20 30 37 59 37 66 0 15 58
83 71 83 5 0 6 -34 2 -77z m-329 20 c-10 -16 -35 -58 -54 -94 -71 -134 -113
-205 -170 -284 -32 -44 -63 -91 -70 -105 -13 -23 -14 -24 -21 -5 -19 48 -9 86
46 177 31 51 62 100 70 108 8 9 15 22 15 28 0 6 8 17 18 24 31 23 92 115 87
130 -4 10 6 20 32 30 59 25 68 23 47 -9z m-231 -148 c-42 -58 -79 -108 -83
-110 -10 -6 -29 101 -23 124 4 17 135 88 165 90 12 1 -6 -31 -59 -104z"/>
<path d="M1670 5190 c-27 -17 -28 -90 -6 -445 30 -499 29 -487 49 -499 14 -9
21 -7 32 8 13 17 20 18 109 7 52 -6 123 -11 158 -11 122 -1 468 -64 823 -150
233 -57 276 -66 550 -111 72 -11 147 -25 168 -31 60 -15 65 -4 66 120 0 59 -4
157 -9 217 -6 61 -13 166 -16 235 -6 156 -17 212 -59 305 -34 73 -35 74 -87
89 -29 9 -118 22 -198 31 -80 8 -164 20 -188 25 -23 6 -107 19 -185 30 -136
19 -301 47 -397 69 -25 5 -106 19 -180 31 -74 11 -160 25 -190 30 -30 5 -82
12 -115 15 -121 11 -227 26 -251 35 -32 12 -55 12 -74 0z m235 -90 c134 -11
424 -55 560 -85 136 -29 471 -82 828 -130 65 -9 128 -20 139 -24 31 -11 77
-128 88 -223 17 -155 35 -413 35 -508 0 -111 20 -103 -170 -71 -212 36 -438
84 -605 131 -66 18 -445 90 -583 110 -76 11 -173 20 -215 21 -42 0 -111 6
-152 12 l-75 12 -7 125 c-4 69 -12 217 -19 330 -6 113 -13 232 -16 264 l-5 59
49 -7 c26 -4 93 -11 148 -16z"/>
<path d="M1847 4683 c-11 -10 -8 -219 3 -247 7 -19 17 -26 36 -26 24 0 25 2
18 33 -3 17 -6 73 -6 122 1 50 -1 98 -4 108 -5 17 -34 23 -47 10z"/>
<path d="M723 7334 c-3 -8 -1 -54 5 -102 6 -48 14 -123 18 -167 4 -44 11 -88
16 -97 11 -22 34 -23 42 -3 6 17 -17 298 -30 363 -5 26 -41 31 -51 6z"/>
<path d="M1653 7044 c-9 -23 5 -288 17 -319 9 -24 43 -35 54 -17 3 5 1 37 -4
73 -5 35 -12 109 -15 163 -4 55 -8 103 -11 108 -9 14 -34 9 -41 -8z"/>
<path d="M3426 6873 c5 -125 10 -161 22 -170 32 -26 38 1 36 153 -2 129 -4
149 -20 161 -42 31 -45 22 -38 -144z"/>
<path d="M2307 6143 c-3 -5 -8 -39 -12 -76 -12 -119 9 -217 46 -217 14 0 12
273 -3 288 -14 14 -25 15 -31 5z"/>
<path d="M773 6023 c-4 -10 1 -85 11 -168 10 -82 20 -172 23 -200 6 -62 22
-82 53 -65 17 9 21 17 15 38 -18 75 -35 197 -41 298 -7 112 -7 114 -31 114
-13 0 -27 -8 -30 -17z"/>
<path d="M895 5850 c-3 -5 -2 -36 4 -67 5 -32 13 -85 16 -118 9 -74 29 -115
56 -115 15 0 19 5 16 18 -7 24 -16 93 -23 182 -3 41 -8 83 -10 93 -6 18 -49
24 -59 7z"/>
<path d="M2865 5653 c14 -131 34 -236 49 -251 23 -23 49 -7 42 26 -3 15 -12
83 -21 151 -9 69 -18 128 -21 133 -3 4 -17 8 -30 8 -26 0 -26 0 -19 -67z"/>
<path d="M4565 5698 c-3 -7 -2 -78 3 -158 l7 -145 25 0 25 0 3 116 c3 126 -11
191 -41 197 -9 2 -19 -2 -22 -10z"/>
<path d="M730 4905 c-16 -19 -8 -171 13 -281 17 -84 22 -94 48 -94 16 0 19 7
19 48 0 26 -7 85 -15 132 -8 47 -15 113 -15 148 0 54 -2 62 -19 62 -10 0 -24
-7 -31 -15z"/>
<path d="M3927 4433 c-13 -12 -7 -179 8 -269 16 -87 34 -124 63 -124 16 0 15
7 -12 170 -9 52 -15 119 -14 150 1 31 -2 62 -6 68 -8 13 -29 16 -39 5z"/>
<path d="M5699 4317 c-1 -1 -3 -67 -4 -147 -3 -115 0 -150 12 -169 9 -14 18
-20 24 -14 5 5 11 78 12 163 2 150 2 153 -20 161 -13 5 -24 7 -24 6z"/>
<path d="M2336 3899 c-16 -80 1 -259 25 -259 22 0 29 47 27 162 -3 117 -4 123
-24 126 -17 2 -23 -4 -28 -29z"/>
<path d="M822 3807 c-11 -13 -11 -29 4 -252 8 -126 21 -183 46 -196 36 -19 41
1 24 109 -9 54 -16 149 -16 210 0 87 -3 114 -16 126 -19 19 -28 20 -42 3z"/>
<path d="M960 3595 c-16 -20 -6 -191 14 -240 14 -33 44 -49 67 -34 11 6 10 18
-5 60 -11 29 -22 91 -25 138 -5 67 -9 86 -22 89 -9 1 -22 -4 -29 -13z"/>
<path d="M4539 3428 c0 -2 -2 -59 -4 -128 -5 -144 6 -193 44 -198 22 -3 23 -1
16 25 -11 38 -12 103 -3 188 6 54 4 75 -8 92 -12 19 -41 32 -45 21z"/>
<path d="M2965 3330 c-4 -6 -4 -34 -1 -63 3 -28 8 -95 11 -147 9 -154 22 -190
72 -190 26 0 29 11 9 43 -16 25 -31 171 -27 264 2 33 -2 71 -8 82 -12 22 -45
28 -56 11z"/>
<path d="M5151 2931 c-11 -7 -12 -32 -7 -127 5 -107 22 -344 25 -352 1 -2 13
-2 29 0 31 4 30 -24 12 273 -14 210 -20 231 -59 206z"/>
<path d="M5308 2743 c-24 -6 -31 -83 -19 -197 12 -108 21 -131 52 -141 24 -8
42 11 33 35 -10 26 -23 152 -24 233 0 79 -1 81 -42 70z"/>
<path d="M5447 2714 c-11 -11 -8 -210 4 -281 8 -46 17 -66 31 -74 38 -20 46
-6 36 63 -5 34 -12 115 -16 178 -6 105 -9 115 -27 118 -12 2 -24 0 -28 -4z"/>
<path d="M843 2834 c-9 -24 4 -174 19 -219 11 -32 18 -40 38 -40 26 0 27 1 15
70 -2 17 -7 59 -10 95 -9 99 -13 110 -36 110 -11 0 -22 -7 -26 -16z"/>
<path d="M1750 2670 c-7 -13 -9 -42 -5 -73 3 -29 7 -96 9 -150 4 -100 14 -127
46 -127 24 0 30 19 19 66 -5 21 -12 97 -16 169 -7 110 -11 130 -25 133 -9 2
-22 -6 -28 -18z"/>
<path d="M1897 2527 c-3 -8 -8 -38 -12 -68 -8 -65 7 -131 36 -160 41 -41 54
-2 30 86 -6 22 -8 66 -5 98 6 56 6 57 -19 57 -14 0 -27 -6 -30 -13z"/>
<path d="M3973 2175 c-11 -29 5 -313 19 -343 10 -20 21 -27 43 -27 20 0 31 6
33 18 2 10 -3 17 -12 17 -12 0 -16 11 -17 43 0 23 -3 67 -6 97 -2 30 -6 89 -6
130 -2 70 -4 75 -25 78 -14 2 -25 -3 -29 -13z"/>
<path d="M6207 1615 c-9 -21 29 -336 44 -367 7 -17 20 -28 32 -28 18 0 19 5
13 53 -3 28 -13 115 -21 192 -9 77 -18 146 -20 153 -6 17 -42 15 -48 -3z"/>
</g>
</svg>
